<svg width="400" height="100" viewBox="0 0 61 34" fill="none" xmlns="http://www.w3.org/2000/svg">
<path d="M15.6184 2.55893e-05C15.3205 -0.00764451 15.0241 0.0429575 14.746 0.14894C14.4679 0.254923 14.2136 0.414209 13.9976 0.617696C13.7816 0.821183 13.6081 1.06488 13.4872 1.33487C13.3662 1.60486 13.3 1.89584 13.2925 2.19119C13.2925 2.80291 13.5375 3.38957 13.9737 3.82212C14.4099 4.25467 15.0015 4.49768 15.6184 4.49768C16.2352 4.49768 16.8268 4.25467 17.263 3.82212C17.6992 3.38957 17.9442 2.80291 17.9442 2.19119C17.9367 1.89584 17.8705 1.60486 17.7496 1.33487C17.6286 1.06488 17.4551 0.821183 17.2391 0.617696C17.0231 0.414209 16.7688 0.254923 16.4907 0.14894C16.2126 0.0429575 15.9162 -0.00764451 15.6184 2.55893e-05Z" fill="black"/>
<path d="M11.389 27.0589C10.8851 27.0589 10.478 27.3126 10.478 28.0776V29.9997C10.478 30.7685 10.8657 31.0184 11.389 31.0184C11.9123 31.0184 12.3077 30.7647 12.3077 29.9997V28.0622C12.3077 27.2934 11.8968 27.0435 11.389 27.0435V27.0589ZM11.6487 31.8257C11.4271 31.8383 11.2056 31.7977 11.0032 31.7074C10.8007 31.617 10.6232 31.4796 10.4858 31.3067V33.1519C10.4858 33.3326 10.3772 33.4364 10.1718 33.4364H9.88105C9.84097 33.4422 9.80007 33.439 9.76137 33.4272C9.72267 33.4153 9.68715 33.3949 9.65741 33.3677C9.62766 33.3404 9.60446 33.3068 9.5895 33.2695C9.57453 33.2322 9.56819 33.192 9.57094 33.1519V28.0276C9.57094 26.8244 10.3462 26.2555 11.3967 26.2555C12.4473 26.2555 13.2303 26.8244 13.2303 28.0276V30.1611C13.2303 31.2913 12.5519 31.841 11.6565 31.841" fill="black"/>
<path d="M16.4052 27.0589C15.8936 27.0589 15.5059 27.3126 15.5059 28.0622V29.9843C15.5059 30.7531 15.9168 31.003 16.4208 31.003C16.9247 31.003 17.3356 30.7493 17.3356 29.9843V28.0622C17.3356 27.2934 16.948 27.0435 16.4208 27.0435L16.4052 27.0589ZM16.4208 31.8257C15.378 31.8257 14.5911 31.2567 14.5911 30.0574V28.0276C14.5911 26.8436 15.3664 26.2555 16.4208 26.2555C17.4752 26.2555 18.2194 26.8436 18.2194 28.0276V30.0727C18.2194 31.2721 17.4441 31.841 16.3897 31.841" fill="black"/>
<path d="M19.77 25.1139C19.7653 24.9999 19.7951 24.8871 19.8555 24.7901C19.916 24.693 20.0042 24.616 20.1091 24.569C20.2139 24.522 20.3305 24.507 20.4439 24.5262C20.5573 24.5453 20.6624 24.5976 20.7456 24.6763C20.8289 24.755 20.8866 24.8566 20.9112 24.968C20.9359 25.0794 20.9265 25.1956 20.8841 25.3017C20.8418 25.4078 20.7684 25.4989 20.6735 25.5634C20.5786 25.6278 20.4665 25.6627 20.3514 25.6636C20.2766 25.6662 20.2021 25.6539 20.1322 25.6275C20.0622 25.6011 19.9983 25.5612 19.9441 25.51C19.89 25.4588 19.8467 25.3974 19.8168 25.3294C19.7869 25.2613 19.7709 25.1881 19.77 25.1139ZM19.5335 33.4903C19.3799 33.4893 19.2267 33.4738 19.0761 33.4442C18.89 33.4057 18.7931 33.3442 18.7931 33.152V32.9252C18.7931 32.733 18.89 32.6023 19.0761 32.633C19.1842 32.6575 19.2947 32.6704 19.4056 32.6715C19.7079 32.6715 19.8707 32.5292 19.8707 32.1333V26.6631C19.8661 26.6221 19.8711 26.5806 19.8852 26.5418C19.8993 26.503 19.9223 26.4679 19.9522 26.4393C19.9822 26.4107 20.0184 26.3893 20.0581 26.3768C20.0977 26.3642 20.1397 26.3609 20.1809 26.3671H20.4832C20.5239 26.3614 20.5654 26.3652 20.6044 26.378C20.6434 26.3908 20.6789 26.4124 20.7081 26.441C20.7374 26.4696 20.7596 26.5046 20.773 26.5431C20.7864 26.5816 20.7908 26.6227 20.7856 26.6631V32.1756C20.7856 33.1558 20.2235 33.4903 19.5141 33.4903" fill="black"/>
<path d="M22.7626 26.367H23.0649C23.1056 26.3614 23.1471 26.3651 23.1861 26.378C23.2251 26.3908 23.2606 26.4123 23.2898 26.441C23.3191 26.4696 23.3413 26.5045 23.3547 26.543C23.3681 26.5816 23.3724 26.6226 23.3673 26.663V31.4452C23.3673 31.6258 23.2704 31.7296 23.0649 31.7296H22.7626C22.7225 31.7355 22.6816 31.7323 22.6429 31.7204C22.6042 31.7085 22.5687 31.6882 22.5389 31.6609C22.5092 31.6336 22.486 31.6001 22.471 31.5628C22.456 31.5254 22.4497 31.4852 22.4524 31.4452V26.663C22.4486 26.6222 22.4541 26.581 22.4685 26.5426C22.4829 26.5042 22.5058 26.4694 22.5356 26.441C22.5654 26.4125 22.6013 26.3911 22.6406 26.3783C22.6799 26.3655 22.7216 26.3617 22.7626 26.367ZM22.3323 25.1139C22.3323 24.9609 22.3935 24.8143 22.5026 24.7061C22.6116 24.598 22.7595 24.5372 22.9137 24.5372C23.068 24.5372 23.2159 24.598 23.3249 24.7061C23.434 24.8143 23.4952 24.9609 23.4952 25.1139C23.4952 25.2668 23.434 25.4134 23.3249 25.5216C23.2159 25.6297 23.068 25.6905 22.9137 25.6905C22.7595 25.6905 22.6116 25.6297 22.5026 25.5216C22.3935 25.4134 22.3323 25.2668 22.3323 25.1139Z" fill="black"/>
<path d="M26.8096 25.7558H26.3599C26.2721 25.7684 26.1824 25.7537 26.1033 25.7138C26.0242 25.6739 25.9595 25.6106 25.918 25.5328L25.3133 24.5333C25.2904 24.5078 25.2761 24.4759 25.2723 24.4421C25.2684 24.4082 25.2753 24.3739 25.2918 24.344C25.3084 24.3141 25.3339 24.29 25.3648 24.2751C25.3957 24.2601 25.4305 24.255 25.4644 24.2604H25.7242C25.799 24.257 25.8733 24.2751 25.9379 24.3126C26.0026 24.3501 26.0549 24.4054 26.0886 24.4718L26.5731 25.2061L27.0693 24.4718C27.0994 24.4027 27.151 24.3449 27.2166 24.3069C27.2821 24.2689 27.3582 24.2526 27.4337 24.2604H27.6934C27.8446 24.2604 27.9183 24.3911 27.833 24.5333L27.2515 25.5213C27.2088 25.598 27.1438 25.6603 27.065 25.7C26.9863 25.7398 26.8973 25.7552 26.8096 25.7442V25.7558ZM26.5615 27.0589C26.1002 27.0589 25.7862 27.2819 25.7862 27.7509C25.7862 28.9426 28.3795 28.3506 28.3795 30.3457C28.3795 31.2952 27.6275 31.8218 26.5925 31.8218C25.5575 31.8218 24.8093 31.2529 24.8093 30.4187V30.3688C24.8093 30.1765 24.9062 30.0843 25.1117 30.0843H25.4451C25.4808 30.0786 25.5174 30.0813 25.5519 30.0921C25.5865 30.1029 25.618 30.1215 25.6439 30.1465C25.6699 30.1716 25.6896 30.2022 25.7015 30.2361C25.7135 30.27 25.7172 30.3062 25.7125 30.3418C25.7125 30.8262 26.1002 31.0415 26.5731 31.0415C27.046 31.0415 27.4453 30.8493 27.4453 30.3418V30.3188C27.4453 29.1271 24.852 29.7383 24.852 27.7547C24.852 26.8091 25.573 26.2594 26.5615 26.2594C27.55 26.2594 28.2981 26.8552 28.2981 27.6779C28.3028 27.7189 28.2978 27.7604 28.2837 27.7992C28.2696 27.838 28.2466 27.873 28.2166 27.9016C28.1867 27.9303 28.1505 27.9516 28.1108 27.9642C28.0712 27.9767 28.0292 27.98 27.988 27.9739H27.6391C27.6039 27.9786 27.568 27.9754 27.5342 27.9646C27.5003 27.9537 27.4694 27.9354 27.4437 27.911C27.418 27.8866 27.3982 27.8568 27.3857 27.8237C27.3732 27.7907 27.3684 27.7553 27.3717 27.7201C27.3717 27.2819 27.0344 27.0589 26.5615 27.0589Z" fill="black"/>
<path d="M31.3296 24.5255L31.1242 25.5327C31.1048 25.6634 31.1901 25.748 31.3296 25.748H31.5855C31.6507 25.7519 31.7152 25.7334 31.7682 25.6956C31.8212 25.6578 31.8594 25.6029 31.8762 25.5404L32.2018 24.5255C32.2561 24.3525 32.1476 24.2603 31.9654 24.2603H31.6398C31.6015 24.256 31.5629 24.2596 31.5261 24.2709C31.4894 24.2822 31.4554 24.3008 31.4263 24.3257C31.3972 24.3506 31.3735 24.3812 31.3569 24.4156C31.3403 24.45 31.331 24.4874 31.3296 24.5255ZM31.2095 31.7717C30.2404 31.7717 29.6938 31.3873 29.6938 30.3456V25.3482C29.6886 25.3077 29.6929 25.2667 29.7063 25.2282C29.7198 25.1897 29.742 25.1547 29.7712 25.1261C29.8005 25.0975 29.836 25.0759 29.875 25.0631C29.914 25.0503 29.9554 25.0465 29.9961 25.0522H30.2946C30.3359 25.0462 30.378 25.0495 30.4178 25.062C30.4576 25.0746 30.494 25.0959 30.5243 25.1244C30.5545 25.1529 30.5778 25.1879 30.5924 25.2266C30.6071 25.2654 30.6126 25.307 30.6086 25.3482V26.3669H31.694C31.7353 26.3609 31.7775 26.3642 31.8172 26.3767C31.857 26.3893 31.8934 26.4106 31.9237 26.4391C31.9539 26.4676 31.9772 26.5026 31.9918 26.5413C32.0065 26.5801 32.012 26.6217 32.008 26.6629V26.8858C32.008 27.078 31.8995 27.1703 31.694 27.1703H30.6241V30.2841C30.6241 30.803 30.8373 30.9683 31.3451 30.9683C31.4675 30.9633 31.5893 30.9491 31.7095 30.926C31.915 30.8953 32.0235 31.0183 32.0235 31.2105V31.4335C32.0235 31.6295 31.915 31.6987 31.7522 31.7295C31.5786 31.763 31.4017 31.7772 31.225 31.7717" fill="black"/>
<path d="M34.7525 27.0589C34.2447 27.0589 33.8377 27.3126 33.8377 28.0776V29.9997C33.8377 30.7685 34.2253 31.0184 34.7525 31.0184C35.2797 31.0184 35.6635 30.7839 35.6635 30.0189V28.0622C35.6635 27.2934 35.2759 27.0435 34.7525 27.0435V27.0589ZM34.7525 31.8257C33.7059 31.8257 32.9229 31.2567 32.9229 30.0574V28.0276C32.9229 26.8436 33.6981 26.2555 34.7525 26.2555C35.8069 26.2555 36.5822 26.8436 36.5822 28.0276V30.0727C36.5822 31.2721 35.8069 31.841 34.7525 31.841" fill="black"/>
<path d="M37.8188 26.3669H38.1599C38.3654 26.3669 38.4739 26.4284 38.5166 26.6014L39.6485 30.9261L40.7765 26.6014C40.8192 26.4284 40.9393 26.3669 41.1332 26.3669H41.4549C41.6604 26.3669 41.7456 26.4899 41.6991 26.6821L40.3656 31.322C40.3389 31.4436 40.2691 31.5517 40.1687 31.6265C40.0684 31.7013 39.9443 31.7379 39.819 31.7295H39.4547C39.33 31.7393 39.2061 31.7031 39.1067 31.6279C39.0073 31.5527 38.9393 31.4438 38.9158 31.322L37.6017 26.6821C37.5845 26.6456 37.5775 26.6052 37.5816 26.5651C37.5857 26.525 37.6006 26.4867 37.6249 26.4544C37.6491 26.422 37.6818 26.3968 37.7193 26.3814C37.7569 26.366 37.798 26.361 37.8382 26.3669" fill="black"/>
<path d="M46.1299 31.7296H45.8275C45.6221 31.7296 45.5252 31.6296 45.5252 31.4451V28.0622C45.5252 27.2934 45.1181 27.0435 44.6103 27.0435C44.1025 27.0435 43.6955 27.2973 43.6955 28.0622V31.4451C43.6955 31.6296 43.5908 31.7296 43.3854 31.7296H43.083C42.8776 31.7296 42.7806 31.6296 42.7806 31.4451V28.0238C42.7806 26.8436 43.5559 26.2555 44.6103 26.2555C45.6647 26.2555 46.44 26.8436 46.44 28.0238V31.4451C46.44 31.6296 46.3315 31.7296 46.1299 31.7296Z" fill="black"/>
<path d="M50.5257 30.0189V29.35H49.6186C49.5008 29.3326 49.3804 29.3415 49.2665 29.3762C49.1526 29.4108 49.0479 29.4703 48.9602 29.5503C48.8724 29.6303 48.8039 29.7287 48.7595 29.8384C48.7152 29.9481 48.6961 30.0663 48.7038 30.1842C48.696 30.303 48.7147 30.422 48.7587 30.5327C48.8028 30.6435 48.8709 30.7432 48.9583 30.8248C49.0458 30.9063 49.1503 30.9677 49.2645 31.0045C49.3786 31.0413 49.4996 31.0526 49.6186 31.0376C50.1226 31.0376 50.5335 30.7839 50.5335 30.0189H50.5257ZM49.6186 31.841C48.5836 31.841 47.7889 31.2721 47.7889 30.2419V30.1727C47.7889 29.154 48.4983 28.5735 49.6186 28.5735H50.5335V28.0622C50.5335 27.2934 50.1226 27.0435 49.6186 27.0435C49.5124 27.0336 49.4052 27.0463 49.3042 27.0808C49.2033 27.1153 49.111 27.1709 49.0335 27.2437C48.9561 27.3165 48.8952 27.405 48.855 27.503C48.8149 27.6011 48.7964 27.7066 48.8007 27.8124C48.8039 27.848 48.799 27.8839 48.7864 27.9174C48.7737 27.9509 48.7536 27.9811 48.7275 28.0059C48.7014 28.0306 48.6701 28.0492 48.6358 28.0603C48.6015 28.0714 48.5651 28.0747 48.5293 28.0699H48.196C47.9944 28.0699 47.8859 27.9777 47.8859 27.7855C47.8859 26.8898 48.572 26.2478 49.6186 26.2478C50.6653 26.2478 51.4483 26.836 51.4483 28.02V30.065C51.4483 31.2452 50.673 31.8333 49.6186 31.8333" fill="black"/>
<path d="M15.6183 6.42351C15.3634 6.41739 15.1098 6.46118 14.8721 6.55239C14.6343 6.6436 14.417 6.78043 14.2326 6.95505C14.0483 7.12967 13.9004 7.33864 13.7976 7.56999C13.6948 7.80135 13.6391 8.05054 13.6335 8.3033V18.8901C13.6562 19.3975 13.8753 19.8768 14.2454 20.2279C14.6155 20.5791 15.108 20.7751 15.6202 20.7751C16.1325 20.7751 16.6249 20.5791 16.995 20.2279C17.3651 19.8768 17.5843 19.3975 17.6069 18.8901V8.3033C17.6014 8.05021 17.5455 7.80069 17.4425 7.56908C17.3394 7.33747 17.1912 7.12833 17.0065 6.95366C16.8217 6.77899 16.6039 6.64224 16.3657 6.55127C16.1275 6.46029 15.8735 6.41687 15.6183 6.42351Z" fill="black"/>
<path d="M7.24511 15.6963C7.23192 16.1147 7.05264 16.511 6.74628 16.799C6.43991 17.087 6.03126 17.2433 5.60924 17.234C5.18722 17.2433 4.77857 17.087 4.4722 16.799C4.16584 16.511 3.98656 16.1147 3.97337 15.6963V11.4985C3.98656 11.0801 4.16584 10.6838 4.4722 10.3959C4.77857 10.1079 5.18722 9.95155 5.60924 9.96088C6.03126 9.95155 6.43991 10.1079 6.74628 10.3959C7.05264 10.6838 7.23192 11.0801 7.24511 11.4985V15.6963ZM11.2185 1.88048C11.1959 1.37303 10.9767 0.893797 10.6066 0.542639C10.2365 0.191481 9.74401 -0.0045166 9.23179 -0.0045166C8.71957 -0.0045166 8.22711 0.191481 7.85701 0.542639C7.48691 0.893797 7.26772 1.37303 7.24511 1.88048V6.75101C6.6385 6.5338 5.99833 6.42322 5.35339 6.42426C2.39565 6.42426 0 8.69231 0 11.487V15.4657C0 18.3949 2.51195 20.7591 5.60924 20.7591C8.70653 20.7591 11.2185 18.3834 11.2185 15.4542V1.88048Z" fill="black"/>
<path d="M48.2387 17.022H46.5176C46.3404 17.0261 46.1642 16.9955 45.9989 16.932C45.8337 16.8686 45.6827 16.7734 45.5545 16.652C45.4263 16.5307 45.3236 16.3854 45.252 16.2246C45.1805 16.0639 45.1416 15.8907 45.1376 15.715V11.4864C45.1416 11.3107 45.1805 11.1376 45.252 10.9768C45.3236 10.816 45.4263 10.6708 45.5545 10.5494C45.6827 10.428 45.8337 10.3329 45.9989 10.2694C46.1642 10.2059 46.3404 10.1753 46.5176 10.1794H48.2581C48.7603 10.1887 49.2458 10.0008 49.6089 9.6566C49.972 9.31241 50.1831 8.83985 50.1963 8.34192C50.1821 7.84468 49.9705 7.3731 49.6076 7.02972C49.2446 6.68635 48.7596 6.49895 48.2581 6.50827H46.3974C43.5056 6.50827 41.1642 8.72249 41.1642 11.4557V15.7611C41.1642 18.4982 43.4901 20.7124 46.3974 20.7124H48.2581C48.5083 20.7237 48.7582 20.6847 48.9928 20.5975C49.2273 20.5104 49.4416 20.3771 49.6228 20.2055C49.8039 20.0339 49.948 19.8277 50.0465 19.5993C50.145 19.371 50.1958 19.1252 50.1958 18.8768C50.1958 18.6284 50.145 18.3826 50.0465 18.1543C49.948 17.9259 49.8039 17.7197 49.6228 17.5481C49.4416 17.3765 49.2273 17.2432 48.9928 17.1561C48.7582 17.0689 48.5083 17.0299 48.2581 17.0412" fill="black"/>
<path d="M59.0618 10.1717C59.564 10.181 60.0495 9.99304 60.4126 9.64885C60.7757 9.30465 60.9868 8.83209 61 8.33417C60.9868 7.83624 60.7757 7.36368 60.4126 7.01949C60.0495 6.67529 59.564 6.48736 59.0618 6.49667H56.2087V3.10228C56.1861 2.59483 55.9669 2.1156 55.5968 1.76444C55.2267 1.41328 54.7343 1.21729 54.222 1.21729C53.7098 1.21729 53.2174 1.41328 52.8473 1.76444C52.4772 2.1156 52.258 2.59483 52.2354 3.10228V15.7611C52.2354 18.4942 54.5612 20.7123 57.4686 20.7123H59.0696C59.3198 20.7237 59.5697 20.6846 59.8042 20.5975C60.0388 20.5104 60.2531 20.377 60.4342 20.2054C60.6153 20.0339 60.7595 19.8277 60.858 19.5993C60.9565 19.3709 61.0072 19.1251 61.0072 18.8767C61.0072 18.6284 60.9565 18.3826 60.858 18.1542C60.7595 17.9258 60.6153 17.7196 60.4342 17.5481C60.2531 17.3765 60.0388 17.2431 59.8042 17.156C59.5697 17.0689 59.3198 17.0298 59.0696 17.0412H57.5887C57.4116 17.0452 57.2353 17.0147 57.0701 16.9512C56.9048 16.8877 56.7538 16.7926 56.6257 16.6712C56.4975 16.5498 56.3947 16.4046 56.3232 16.2438C56.2516 16.083 56.2128 15.9098 56.2087 15.7341V10.1717H59.0618Z" fill="black"/>
<path d="M26.0808 10.1717C26.5827 10.18 27.0676 9.99176 27.4305 9.64777C27.7933 9.30379 28.0048 8.83182 28.019 8.33423C28.0048 7.83663 27.7933 7.36466 27.4305 7.02068C27.0676 6.67669 26.5827 6.48843 26.0808 6.49672H25.2551C22.3632 6.49672 20.0219 8.7148 20.0219 11.448V18.8903C20.0445 19.3977 20.2637 19.8769 20.6338 20.2281C21.0039 20.5793 21.4963 20.7753 22.0085 20.7753C22.5208 20.7753 23.0132 20.5793 23.3833 20.2281C23.7534 19.8769 23.9726 19.3977 23.9952 18.8903V11.4787C23.9993 11.303 24.0381 11.1299 24.1097 10.9691C24.1812 10.8083 24.284 10.6631 24.4122 10.5417C24.5403 10.4203 24.6913 10.3252 24.8566 10.2617C25.0218 10.1982 25.1981 10.1676 25.3752 10.1717H26.0808Z" fill="black"/>
<path d="M32.6592 9.7563C32.619 9.53114 32.625 9.30024 32.6769 9.07744C32.7288 8.85464 32.8255 8.64452 32.9613 8.45967C33.097 8.27482 33.2689 8.11903 33.4668 8.00166C33.6647 7.88428 33.8845 7.80772 34.1129 7.77656C34.5778 7.67925 35.0626 7.76311 35.4668 8.01075C35.8709 8.2584 36.1635 8.65083 36.2837 9.10664C36.3251 9.33163 36.3201 9.56261 36.2689 9.78561C36.2177 10.0086 36.1214 10.219 35.9859 10.4041C35.8504 10.5891 35.6784 10.745 35.4804 10.8623C35.2824 10.9795 35.0625 11.0558 34.8339 11.0864C34.3691 11.1837 33.8843 11.0998 33.4801 10.8522C33.0759 10.6045 32.7834 10.2121 32.6631 9.7563H32.6592ZM39.9276 16.6988C39.8695 16.4423 39.7588 16.2003 39.6026 15.9878C39.4464 15.7754 39.2478 15.597 39.0193 15.4637C38.7907 15.3303 38.537 15.2449 38.2739 15.2127C38.0107 15.1806 37.7437 15.2023 37.4893 15.2765C36.9236 15.4563 36.3377 15.566 35.7449 15.6032C35.257 15.6518 34.7684 15.5184 34.3742 15.2292C33.9801 14.94 33.7087 14.5156 33.6129 14.0387C33.5837 13.8592 33.5837 13.6762 33.6129 13.4967C34.5003 13.8065 35.4597 13.8519 36.3729 13.6274C36.9536 13.491 37.5007 13.24 37.9815 12.8894C38.4623 12.5388 38.8669 12.0957 39.1712 11.5865C39.4755 11.0774 39.6732 10.5127 39.7525 9.92614C39.8319 9.33957 39.7912 8.74316 39.633 8.17251C38.9662 5.62769 36.462 4.08234 33.4927 4.61283C32.3423 4.79844 31.2833 5.3479 30.4736 6.17924C29.6639 7.01059 29.1469 8.07926 28.9999 9.22581C28.9167 10.5135 29.008 11.8064 29.2712 13.07C29.5775 14.7191 30.0077 16.0722 30.6241 16.9794C31.1477 17.7284 31.8415 18.3448 32.6495 18.7789C33.4576 19.2129 34.3572 19.4524 35.2759 19.4781C36.4794 19.5544 37.6821 19.3172 38.7647 18.79C39.3151 18.4864 40.102 17.7829 39.8927 16.6988" fill="#BECD00"/>
</svg>
